<?xml version="1.0" standalone="no"?>
<!DOCTYPE svg PUBLIC "-//W3C//DTD SVG 20010904//EN"
 "http://www.w3.org/TR/2001/REC-SVG-20010904/DTD/svg10.dtd">
<svg version="1.0" xmlns="http://www.w3.org/2000/svg"
 width="1024.000000pt" height="1024.000000pt" viewBox="0 0 1024.000000 1024.000000"
 preserveAspectRatio="xMidYMid meet">
<metadata>
Created by potrace 1.14, written by Peter Selinger 2001-2017
</metadata>
<g transform="translate(0.000000,1024.000000) scale(0.100000,-0.100000)"
fill="#000000" stroke="none">
<path d="M3055 9465 c-49 -17 -90 -62 -104 -112 -7 -24 -11 -206 -11 -500 l0
-462 -482 -4 c-512 -4 -513 -4 -648 -56 -96 -36 -232 -136 -305 -223 -22 -26
-45 -54 -51 -61 -22 -25 -75 -125 -99 -186 -51 -132 -49 2 -49 -3271 0 -1680
3 -3083 7 -3116 7 -69 15 -110 27 -139 4 -11 15 -41 24 -66 65 -182 263 -380
453 -453 154 -59 -57 -55 3303 -55 2656 0 3095 2 3159 14 339 66 613 359 648
694 9 85 9 6173 0 6226 -15 84 -19 102 -43 167 -48 127 -130 242 -238 334
-123 104 -242 158 -416 188 -14 3 -229 5 -477 5 l-453 1 0 463 c0 304 -4 475
-11 502 -14 51 -65 100 -117 115 -29 7 -166 10 -440 8 -396 -3 -397 -3 -438
-27 -80 -46 -79 -33 -82 -578 l-3 -483 -1089 0 -1090 0 0 463 c0 304 -4 475
-11 502 -14 50 -64 100 -114 114 -64 17 -799 14 -850 -4z m5056 -2714 c11 -2
8 -5074 -3 -5109 -5 -18 -21 -40 -34 -49 -23 -15 -277 -16 -2947 -16 -2046 1
-2930 4 -2949 11 -56 23 -53 -149 -54 2607 -1 1403 2 2552 7 2555 6 4 5961 5
5980 1z"/>
<path d="M3057 5649 c-58 -20 -79 -39 -100 -96 -14 -36 -16 -96 -16 -435 1
-216 5 -407 10 -424 11 -40 62 -90 108 -106 52 -17 801 -17 853 1 55 18 95 65
108 125 8 34 10 178 8 436 -3 367 -4 387 -24 425 -13 26 -36 49 -65 65 l-44
24 -395 1 c-342 0 -401 -2 -443 -16z"/>
<path d="M4698 5653 c-48 -14 -84 -46 -105 -93 -13 -30 -16 -95 -16 -425 0
-214 2 -405 5 -424 9 -47 58 -103 104 -120 31 -11 120 -14 414 -14 371 -1 442
3 480 23 30 16 66 71 77 115 5 22 9 217 8 432 l-1 393 -30 42 c-57 82 -55 82
-502 83 -277 0 -405 -3 -434 -12z"/>
<path d="M6360 5659 c-54 -9 -95 -35 -121 -76 l-24 -38 -3 -390 c-3 -267 0
-406 8 -442 14 -66 65 -118 124 -129 59 -11 762 -11 818 -1 65 13 113 62 128
131 8 34 10 178 8 441 -3 417 -3 417 -54 464 -48 43 -71 45 -469 46 -209 0
-396 -2 -415 -6z"/>
<path d="M3060 4018 c-50 -14 -96 -62 -109 -114 -14 -53 -15 -771 -1 -828 12
-54 38 -87 89 -113 43 -22 51 -22 440 -22 415 0 445 3 493 46 11 10 29 36 39
58 17 37 18 74 18 437 1 365 -1 401 -18 440 -23 54 -55 83 -106 97 -51 14
-795 13 -845 -1z"/>
<path d="M4705 4021 c-50 -12 -83 -40 -107 -89 -22 -47 -23 -51 -22 -447 0
-397 0 -400 22 -447 15 -29 37 -56 60 -70 l37 -23 426 0 426 0 41 29 c75 52
77 63 76 516 0 378 -1 397 -21 441 -13 30 -34 54 -59 70 l-39 24 -405 2 c-223
1 -419 -2 -435 -6z"/>
<path d="M6328 4018 c-45 -12 -93 -63 -107 -115 -7 -24 -11 -184 -11 -423 1
-404 4 -435 47 -482 48 -53 47 -53 489 -55 407 -2 411 -2 454 20 52 26 78 59
90 113 14 57 12 780 -1 829 -14 50 -64 100 -114 114 -51 14 -794 13 -847 -1z"/>
</g>
</svg>
